<?xml version="1.0" encoding="utf-8"?>
<!-- Generator: Adobe Illustrator 26.2.1, SVG Export Plug-In . SVG Version: 6.00 Build 0)  -->
<svg version="1.1" id="Capa_1" xmlns="http://www.w3.org/2000/svg" xmlns:xlink="http://www.w3.org/1999/xlink" x="0px" y="0px"
	 viewBox="0 0 1680 1970" style="enable-background:new 0 0 1680 1970;" xml:space="preserve">
<style type="text/css">
	.st0{fill:#FFFEEE;}
</style>
<path class="st0" d="M-7.9,0C128-1,238.8,108.9,238.8,245v3.6c0,135.9,110.8,245.9,246.7,245h0.9c136.2-1,247.2,109.5,246.7,245.9
	v0.9c-0.5,135.2,108.8,245.4,244,245.9l252.3,0.9c270.8,1,489.6,220.8,489.6,491.4c0,272.4-221.4,492.8-493.6,491.4h-10.9
	c-273.3-1.2-493.1-225.2-489.1-498.4l3.4-234.3c1.9-136.6-108.2-248.4-244.8-248.4H-6c-135.2,0-245-109.6-245-245V244.9
	C-251,110.5-142.4,1-7.9,0z"/>
</svg>
