<?xml version="1.0" encoding="utf-8"?>
<!-- Generator: Adobe Illustrator 26.2.1, SVG Export Plug-In . SVG Version: 6.00 Build 0)  -->
<svg version="1.1" id="Capa_1" xmlns="http://www.w3.org/2000/svg" xmlns:xlink="http://www.w3.org/1999/xlink" x="0px" y="0px"
	 viewBox="0 0 959 956" style="enable-background:new 0 0 959 956;" xml:space="preserve">
<style type="text/css">
	.st0{fill:#F4EBFF;}
</style>
<path class="st0" d="M959,358.6c0-66.2-53.8-119.9-120.2-119.9h-239c-66.1,0-119.8-53.4-119.8-119.4C480,53.4,425.9,0,359.7,0
	S239.5,53.4,239.5,119.4c0,65.9-53.6,119.4-119.8,119.4S0,292.7,0,358.6c0,65.9,53.6,119.9,119.8,119.9s119.8,53.4,119.8,119.4
	v119.4c0,131.9,107.7,238.8,240,238.8c132.3,0,240-106.9,240-238.8V597.8c0-65.9,53.6-119.4,119.8-119.4S959,424.5,959,358.6z"/>
</svg>
